<svg width="21" height="22" viewBox="0 0 21 22" fill="none" xmlns="http://www.w3.org/2000/svg">
<path d="M0.333374 13.2C0.333374 14.63 1.21758 15.84 2.43864 16.302V19.8H0.333374V22H6.64916V19.8H4.5439V16.302C5.76495 15.84 6.64916 14.63 6.64916 13.2V4.4H0.333374V13.2ZM2.43864 6.6H4.5439V9.9H2.43864V6.6ZM2.43864 12.1H4.5439V13.2C4.5439 13.805 4.07022 14.3 3.49127 14.3C2.91232 14.3 2.43864 13.805 2.43864 13.2V12.1Z" fill="black"/>
<path d="M18.9018 7.194L17.8913 6.842C17.4597 6.688 17.1755 6.27 17.1755 5.797V1.1C17.1755 0.495 16.7018 0 16.1228 0H12.965C12.386 0 11.9123 0.495 11.9123 1.1V5.808C11.9123 6.281 11.6281 6.699 11.1965 6.853L10.186 7.205C9.33337 7.513 8.75443 8.349 8.75443 9.295V19.8C8.75443 21.01 9.7018 22 10.8597 22H18.2281C19.386 22 20.3334 21.01 20.3334 19.8V9.284C20.3334 8.338 19.7544 7.502 18.9018 7.194ZM14.0176 2.2H15.0702V3.3H14.0176V2.2ZM18.2281 19.8H10.8597V17.6H18.2281V19.8ZM18.2281 15.4H10.8597V13.2H18.2281V15.4ZM18.2281 11H10.8597V9.284L11.8597 8.932C13.1544 8.492 14.0176 7.227 14.0176 5.808V5.5H15.0702V5.808C15.0702 7.227 15.9334 8.492 17.2281 8.943L18.2281 9.284V11Z" fill="black"/>
</svg>
