<svg width="32" height="32" viewBox="0 0 32 32" fill="none" xmlns="http://www.w3.org/2000/svg">
<path fill-rule="evenodd" clip-rule="evenodd" d="M17.4924 7.55752C17.4924 7.56794 17.4924 7.56794 17.4924 7.55752V7.55752ZM14.5275 8.18252C14.5275 8.19033 14.5275 8.19033 14.5275 8.18252V8.18252ZM24.04 19.8023C25.8641 19.3596 27.7312 20.3414 28.2172 22.0028C28.7033 23.6643 27.6254 25.3648 25.8012 25.8075C23.9771 26.2502 22.11 25.2685 21.6268 23.607C21.1408 21.9455 22.2158 20.245 24.04 19.8023ZM7.96849 20.4273C6.14433 19.9846 4.27728 20.9664 3.79122 22.6278C3.30516 24.2893 4.38307 25.9898 6.20723 26.4299C8.03139 26.8726 9.89844 25.8909 10.3816 24.2294C10.8706 22.5705 9.79265 20.87 7.96849 20.4273ZM7.63111 21.581L6.66184 22.7424L5.08071 22.4742L5.99851 23.6747L5.22939 24.9612L6.76763 24.5393L7.86556 25.6044L7.89701 24.1435L9.35233 23.5185L7.83411 23.0393L7.63397 21.5888L7.63111 21.581ZM12.2287 11.2372L9.16077 11.0653L9.99279 9.23981L10.0242 8.95075L9.90702 8.38304L10.2015 7.38304L10.2444 7.39346L13.3438 8.15127L13.0578 9.11221L12.5832 9.50544L12.3945 9.83096L12.2287 11.2372ZM12.8405 19.0914L4.4374 17.0367C4.72331 16.5471 5.13218 16.1148 5.56677 15.7789C6.09286 15.3648 6.6647 15.0862 7.12789 14.982L7.40237 14.9143L7.50816 14.6747L8.54033 12.4091L12.0628 12.6018L11.6626 15.8778L11.6311 16.1382L11.8513 16.3205C12.2087 16.6174 12.4317 17.0497 12.5775 17.5393C12.7147 18.0185 12.7891 18.5471 12.8405 19.0862V19.0914ZM4.03711 18.383L12.4946 20.4481L10.2387 28.1226L1.78121 26.0575L4.03711 18.383ZM1.37807 27.4013L9.83554 29.4664L9.66685 30.0523C9.49815 30.4664 9.29801 30.7528 9.05498 30.8882C8.85484 31.0028 8.58036 30.995 8.22296 30.8596L8.14862 30.831L1.96992 29.3231C1.61252 29.2372 1.37807 29.1018 1.2637 28.9013C1.1379 28.6903 1.12646 28.3935 1.21224 28.008L1.39236 27.4039L1.37807 27.4013ZM7.7998 11.3231C7.75691 11.3909 7.71688 11.4664 7.69401 11.5445L6.54462 14.0601C5.99565 14.232 5.37521 14.5601 4.81481 14.9924C4.24583 15.4351 3.71688 16.0002 3.35948 16.6539L3.3166 16.7502L0.0914346 27.7268L0.0799979 27.7554C-0.0686797 28.3987 -0.0143552 28.9455 0.237253 29.3882C0.511735 29.8492 0.974923 30.1565 1.66113 30.3205L7.80838 31.8179C8.5146 32.0862 9.12646 32.0497 9.63253 31.7606C10.1186 31.4924 10.476 31.0106 10.7305 30.3674L10.7419 30.3284L13.9585 19.3882L13.9699 19.206C13.907 18.5523 13.8327 17.8909 13.6526 17.2659C13.4839 16.6903 13.2208 16.1721 12.7977 15.7476L13.4839 10.1278L13.927 9.76325L14.0957 9.51325L14.4646 8.27366C14.516 8.10179 14.5074 8.13825 14.496 8.15908C14.5904 7.85179 14.6333 7.71637 14.4445 7.47679C14.2959 7.27627 14.15 7.24502 13.887 7.19814L13.6754 7.15127L10.5017 6.37262C10.3759 6.34398 10.3016 6.31533 10.2387 6.2945C10.0071 6.22679 9.86985 6.17991 9.63825 6.25544C9.28086 6.37002 9.22653 6.5445 9.11216 6.95596L8.74333 8.20335L8.73189 8.43252L8.83768 8.96116L7.77121 11.2867L7.7998 11.3231ZM9.97278 7.28929C9.96134 7.28929 9.97278 7.28929 10.0242 7.27106C10.11 7.23981 10.0357 7.26846 9.97278 7.28929ZM22.1215 4.22419C21.8784 4.53148 21.3952 4.59919 21.055 4.37783C20.7176 4.15648 20.6433 3.71637 20.8863 3.40648L22.1729 1.78408C22.416 1.47679 22.8992 1.40908 23.2394 1.63044C23.5768 1.85179 23.6511 2.29189 23.4081 2.60179L22.1215 4.22419ZM11.9856 3.64867C12.3345 3.8596 12.4403 4.28148 12.2058 4.6096C11.9742 4.92731 11.511 5.02366 11.1508 4.81012L9.30659 3.71637C8.95777 3.50544 8.85198 3.08356 9.08643 2.75544C9.31803 2.43773 9.78121 2.34137 10.1415 2.55492L11.9856 3.64867ZM15.2994 2.47679C15.4052 2.85179 15.1508 3.22679 14.7419 3.31273C14.3302 3.40908 13.9185 3.17731 13.8241 2.80492L13.2952 0.862207C13.1894 0.487207 13.4438 0.112207 13.8527 0.0262693C14.2644 -0.0700848 14.6761 0.161686 14.7705 0.534082L15.2994 2.47679ZM19.1365 2.80231C19.0536 3.17731 18.6418 3.41689 18.2301 3.33096C17.8184 3.25544 17.5553 2.88044 17.6497 2.50544L18.1243 0.547103C18.2101 0.172103 18.619 -0.0674807 19.0307 0.0184568C19.4424 0.0939777 19.7054 0.468978 19.6111 0.843978L19.1365 2.80231ZM19.7683 10.62L22.8363 10.4481L22.0042 8.62262L21.9728 8.33356L22.09 7.76585L21.7927 6.77106L21.7498 6.78148L18.6504 7.53929L18.9363 8.50023L19.4109 8.89346L19.5997 9.21898L19.7683 10.62ZM19.1565 18.4768L27.5596 16.4221C27.2737 15.9325 26.8648 15.5002 26.4303 15.1643C25.9042 14.7502 25.3323 14.4716 24.8691 14.3674L24.5947 14.2997L24.4889 14.0601L23.4567 11.7945L19.9342 11.9872L20.3345 15.2632L20.3659 15.5237L20.1458 15.706C19.7884 16.0028 19.5653 16.4351 19.4195 16.9247C19.2823 17.4039 19.2079 17.9325 19.1565 18.4716V18.4768ZM27.9628 17.7659L19.5053 19.831L21.7612 27.5054L30.2187 25.4403L27.9628 17.7659ZM30.619 26.7867L22.1615 28.8518L22.3302 29.4377C22.4989 29.8518 22.699 30.1382 22.942 30.2737C23.1422 30.3882 23.4167 30.3804 23.7741 30.245L23.8484 30.2164L30.0271 28.7086C30.3845 28.6226 30.619 28.4872 30.7333 28.2867C30.8591 28.0757 30.8706 27.7789 30.7848 27.3935L30.6047 26.7893L30.619 26.7867ZM24.1972 10.7086C24.2401 10.7763 24.2801 10.8518 24.303 10.9299L25.4524 13.4455C26.0014 13.6174 26.6218 13.9455 27.1822 14.3778C27.7512 14.8205 28.2801 15.3856 28.6375 16.0393L28.6804 16.1356L31.9084 27.1148L31.9199 27.1435C32.0686 27.7867 32.0142 28.3336 31.7626 28.7763C31.4881 29.2372 31.025 29.5445 30.3388 29.7086L24.1915 31.206C23.4853 31.4742 22.8734 31.4351 22.3673 31.1487C21.8813 30.8804 21.5239 30.3987 21.2694 29.7554L21.258 29.7164L18.0414 18.7763L18.03 18.594C18.0929 17.9403 18.1672 17.2789 18.3473 16.6539C18.516 16.0784 18.7791 15.5601 19.2022 15.1356L18.516 9.51585L18.0729 9.15127L17.9042 8.90127L17.5353 7.66169C17.4839 7.48981 17.4924 7.52627 17.5039 7.5471C17.4095 7.23981 17.3666 7.10439 17.5553 6.86481C17.704 6.66429 17.8498 6.63564 18.1129 6.58616L18.3245 6.53929L21.4982 5.76064C21.624 5.732 21.6983 5.70335 21.7612 5.68252C21.9928 5.61481 22.13 5.56794 22.3616 5.64346C22.719 5.75804 22.7734 5.93252 22.8877 6.34398L23.2566 7.59137L23.268 7.82054L23.1622 8.34919L24.2287 10.6747L24.1972 10.7086ZM22.0271 6.67471C22.0385 6.67471 22.0271 6.67471 21.9756 6.65648C21.8899 6.62523 21.9613 6.65387 22.0271 6.67471ZM24.3774 20.9664L25.3466 22.1278L26.9277 21.8596L26.01 23.0601L26.7791 24.3466L25.2408 23.9247L24.1429 24.9898L24.1115 23.5289L22.6561 22.9039L24.1744 22.4247L24.3745 20.9742L24.3774 20.9664Z" fill="black"/>
</svg>
