<svg width="16" height="16" viewBox="0 0 16 16" fill="none" xmlns="http://www.w3.org/2000/svg">
<path fill-rule="evenodd" clip-rule="evenodd" d="M7.3335 0.166992C3.74365 0.166992 0.833496 3.07714 0.833496 6.66699C0.833496 10.2568 3.74365 13.167 7.3335 13.167C10.9233 13.167 13.8335 10.2568 13.8335 6.66699C13.8335 3.07714 10.9233 0.166992 7.3335 0.166992ZM1.8335 6.66699C1.8335 3.62943 4.29593 1.16699 7.3335 1.16699C10.3711 1.16699 12.8335 3.62943 12.8335 6.66699C12.8335 9.70456 10.3711 12.167 7.3335 12.167C4.29593 12.167 1.8335 9.70456 1.8335 6.66699Z" fill="black"/>
<path d="M13.0204 11.6468C12.8252 11.4516 12.5086 11.4516 12.3133 11.6468C12.1181 11.8421 12.1181 12.1587 12.3133 12.3539L14.9799 15.0206C15.1752 15.2158 15.4918 15.2158 15.687 15.0206C15.8823 14.8253 15.8823 14.5087 15.687 14.3135L13.0204 11.6468Z" fill="black"/>
</svg>
