<svg width="21" height="16" viewBox="0 0 21 16" fill="none" xmlns="http://www.w3.org/2000/svg">
<path d="M5.50311 8.94688C6.37584 8.96562 7.18493 9.41563 7.73038 10.2031C8.39402 11.1688 9.49402 11.75 10.6667 11.75C11.8395 11.75 12.9395 11.1687 13.6031 10.1938C14.1486 9.40625 14.9577 8.95625 15.8304 8.9375C15.1758 7.79375 12.5577 7.0625 10.6667 7.0625C8.78493 7.0625 6.15766 7.79375 5.50311 8.94688Z" fill="black"/>
<path d="M3.39402 8.9375C4.90311 8.9375 6.12129 7.68125 6.12129 6.125C6.12129 4.56875 4.90311 3.3125 3.39402 3.3125C1.88493 3.3125 0.666748 4.56875 0.666748 6.125C0.666748 7.68125 1.88493 8.9375 3.39402 8.9375Z" fill="black"/>
<path d="M17.9395 8.9375C19.4486 8.9375 20.6667 7.68125 20.6667 6.125C20.6667 4.56875 19.4486 3.3125 17.9395 3.3125C16.4304 3.3125 15.2122 4.56875 15.2122 6.125C15.2122 7.68125 16.4304 8.9375 17.9395 8.9375Z" fill="black"/>
<path d="M10.6667 6.125C12.1758 6.125 13.394 4.86875 13.394 3.3125C13.394 1.75625 12.1758 0.5 10.6667 0.5C9.15766 0.5 7.93948 1.75625 7.93948 3.3125C7.93948 4.86875 9.15766 6.125 10.6667 6.125Z" fill="black"/>
<path d="M18.8486 9.875H15.8758C15.1758 9.875 14.6486 10.2969 14.3486 10.7375C14.3122 10.7937 13.1122 12.6875 10.6667 12.6875C9.36675 12.6875 7.9122 12.0875 6.98493 10.7375C6.63038 10.2219 6.07584 9.875 5.45766 9.875H2.48493C1.48493 9.875 0.666748 10.7188 0.666748 11.75V15.5H7.03038V13.3812C8.07584 14.1312 9.33948 14.5625 10.6667 14.5625C11.994 14.5625 13.2577 14.1312 14.3031 13.3812V15.5H20.6667V11.75C20.6667 10.7188 19.8486 9.875 18.8486 9.875Z" fill="black"/>
</svg>
