<svg width="32" height="32" viewBox="0 0 32 32" fill="none" xmlns="http://www.w3.org/2000/svg">
<path fill-rule="evenodd" clip-rule="evenodd" d="M6.96322 6.97136H13.548V13.513H6.96322V6.97136ZM9.30952 3.86454e-06H6.02105C5.23536 -0.000892115 4.45733 0.154018 3.73217 0.455733C3.00136 0.757775 2.33716 1.20019 1.77735 1.75782C1.21865 2.31653 0.775287 2.97923 0.4724 3.70834C0.162946 4.43576 0.00233553 5.21757 7.45266e-06 6.00782V10.0625H2.66994V6.00782C2.67268 5.56955 2.76134 5.13606 2.93093 4.73177C3.09737 4.32555 3.34312 3.95641 3.65387 3.64584C4.28203 3.02014 5.13346 2.66888 6.02105 2.66927H9.30952V3.86454e-06ZM25.979 3.86454e-06H23.831V2.66407H25.979C26.4182 2.66707 26.8526 2.75553 27.2578 2.92448C27.6635 3.09324 28.033 3.33812 28.3461 3.64584L28.4375 3.73959C28.7071 4.03144 28.9235 4.36811 29.0769 4.73438C29.2477 5.13739 29.3364 5.57027 29.3379 6.00782V10.0625H32.0078V6.00782C32.0085 4.46074 31.4079 2.97368 30.3323 1.85938L30.2357 1.76302C29.6758 1.20555 29.0116 0.763163 28.2809 0.460941C27.5519 0.15608 26.7694 -0.00062352 25.979 3.86454e-06ZM32 25.9922V21.4896H29.3301V25.9922C29.3286 26.4297 29.2398 26.8626 29.0691 27.2656C28.8981 27.6713 28.6499 28.0401 28.3383 28.3516C28.0285 28.6628 27.6601 28.91 27.2544 29.0789C26.8486 29.2479 26.4134 29.3352 25.9737 29.3359H23.831V32H25.979C26.7692 31.9994 27.5516 31.8432 28.2812 31.5402C29.0107 31.2372 29.6732 30.7934 30.2305 30.2344C30.7883 29.6749 31.2315 29.0124 31.5354 28.2839C31.837 27.5573 31.9922 26.7786 31.9922 25.9922H32ZM6.02105 32H9.30952V29.3359H6.02105C5.58095 29.3355 5.14526 29.2484 4.73902 29.0794C4.33279 28.9105 3.964 28.6631 3.65387 28.3516L3.58601 28.2891C3.2934 27.9813 3.06222 27.6207 2.90483 27.2266C2.74731 26.834 2.66669 26.415 2.66733 25.9922V21.4896H7.45266e-06V25.9922C-0.00121034 26.7573 0.146827 27.5153 0.435861 28.224C0.723927 28.9393 1.1485 29.592 1.686 30.1458L1.76691 30.237C2.3278 30.7945 2.99282 31.2369 3.72434 31.5391C4.45218 31.841 5.23281 31.9959 6.02105 31.9948V32ZM23.3821 23.3802H25.0551V25.0286H23.3821V23.3802ZM20.1563 23.3802H21.837V24.9427H18.4781V21.737H20.0962V20.1094H21.7509V16.8646H23.4369V18.4583H25.0342V20.1068H23.4369V21.7552H20.1563V23.3776V23.3802ZM15.174 20.0833H16.7999V18.4349H15.234V16.7865H16.7999V15.138H15.2001V16.7865H13.5193V15.138H15.1714V10.2422H16.8495V15.1354H18.4755V16.7839H20.0754V15.1354H21.7535V16.7839H20.1563V18.4323H18.4781V21.6771H16.8521V24.9505H15.174V20.0833ZM23.356 15.1354H25.0342V16.7839H23.356V15.1354ZM10.2439 15.1354H11.922V16.7839H10.2439V15.1354ZM6.96322 15.1354H8.64139V16.7839H6.96322V15.1354ZM15.174 6.97136H16.8521V8.61979H15.174V6.97136ZM6.93712 18.4583H13.5193V25H6.93712V18.4583ZM8.53699 20.0521H11.9299V23.4141H8.53699V20.0521ZM18.4546 6.97396H25.0342V13.513H18.452V6.97136L18.4546 6.97396ZM20.0545 8.5625H23.4474V11.9245H20.0545V8.5599V8.5625ZM8.57092 8.5625H11.9638V11.9245H8.57092V8.5599V8.5625Z" fill="black"/>
</svg>
