<svg width="21" height="24" viewBox="0 0 21 24" fill="none" xmlns="http://www.w3.org/2000/svg">
<path d="M18.8333 2.225L17.1667 0.5L15.5 2.225L13.8333 0.5L12.1667 2.225L10.5 0.5L8.83333 2.225L7.16667 0.5L5.5 2.225L3.83333 0.5L2.16667 2.225L0.5 0.5V23.5L2.16667 21.775L3.83333 23.5L5.5 21.775L7.16667 23.5L8.83333 21.775L10.5 23.5L12.1667 21.775L13.8333 23.5L15.5 21.775L17.1667 23.5L18.8333 21.775L20.5 23.5V0.5L18.8333 2.225ZM18.2778 20.1535H2.72222V3.8465H18.2778V20.1535ZM3.83333 15.45H17.1667V17.75H3.83333V15.45ZM3.83333 10.85H17.1667V13.15H3.83333V10.85ZM3.83333 6.25H17.1667V8.55H3.83333V6.25Z" fill="#272727"/>
</svg>
