<svg width="26" height="32" viewBox="0 0 26 32" fill="none" xmlns="http://www.w3.org/2000/svg">
<path d="M17.7526 0.171875C17.638 0.0677083 17.4766 0 17.3177 0C17.2839 0 17.25 0 17.2135 0.0104167H1.44271C1.05469 0.0104167 0.6875 0.171875 0.424479 0.434896C0.161458 0.697917 0 1.05208 0 1.45313V30.5573C0 30.9583 0.161458 31.3125 0.424479 31.5755C0.6875 31.8385 1.04167 32 1.44271 32C8.79167 32 16.724 32 24.0365 32C24.4375 32 24.7917 31.8385 25.0547 31.5755C25.3177 31.3125 25.4792 30.9583 25.4792 30.5573V8.41146C25.4896 8.35417 25.5026 8.30729 25.5026 8.25C25.5026 8.05469 25.4115 7.88281 25.2839 7.75781L17.8307 0.21875C17.8073 0.195312 17.7969 0.184896 17.7734 0.171875H17.7526ZM5.34635 5.125C4.99219 5.125 4.69531 5.41146 4.69531 5.77865C4.69531 6.13281 4.98177 6.42969 5.34635 6.42969H9.8125C10.1667 6.42969 10.4661 6.14323 10.4661 5.77865C10.4661 5.42448 10.1797 5.125 9.8125 5.125H5.34635ZM10.1901 21.7057H7.8776V21.3229C7.8776 20.9141 7.84896 20.6484 7.79688 20.5234C7.74479 20.3958 7.63021 20.3333 7.45573 20.3333C7.3151 20.3333 7.20833 20.388 7.13802 20.4948C7.06771 20.6068 7.03125 20.7682 7.03125 20.987C7.03125 21.349 7.10417 21.6042 7.2474 21.7474C7.38802 21.8932 7.80469 22.1745 8.49479 22.5938C9.08073 22.9505 9.48177 23.2214 9.69531 23.4089C9.90885 23.599 10.0885 23.8646 10.2344 24.2109C10.3802 24.5573 10.4557 24.987 10.4557 25.5026C10.4557 26.3255 10.2578 26.974 9.86198 27.4427C9.46615 27.9115 8.86719 28.2005 8.07552 28.3125V29.1797H7.00781V28.2891C6.39063 28.2292 5.84896 27.9896 5.38802 27.5755C4.92708 27.1641 4.69531 26.4401 4.69531 25.4089V24.9557H7.00781V25.5208C7.00781 26.1432 7.03125 26.5286 7.08073 26.6797C7.1276 26.8307 7.24219 26.9036 7.42448 26.9036C7.58073 26.9036 7.69792 26.8516 7.77344 26.7474C7.84896 26.6406 7.88802 26.4844 7.88802 26.2786C7.88802 25.7604 7.85156 25.388 7.77865 25.1667C7.70573 24.9427 7.46094 24.6979 7.03646 24.4375C6.33073 23.9948 5.85156 23.6693 5.59635 23.4609C5.34375 23.2526 5.1224 22.9609 4.9401 22.5807C4.75521 22.2031 4.66146 21.776 4.66146 21.2995C4.66146 20.6094 4.85677 20.0677 5.2474 19.6745C5.63802 19.2813 6.22656 19.0391 7.00781 18.9479V18.2083H8.07552V18.9479C8.78906 19.0391 9.32292 19.2786 9.67969 19.6667C10.0339 20.0547 10.2109 20.5911 10.2109 21.2734C10.2135 21.3672 10.2057 21.513 10.1901 21.7057ZM16.6641 1.30469V6.94792C16.6641 7.48698 16.8828 7.97917 17.237 8.33333C17.5911 8.6875 18.0833 8.90625 18.6224 8.90625H24.1615V30.5599C24.1615 30.5938 24.151 30.6406 24.1146 30.6641C24.0911 30.6875 24.0573 30.7109 24.0104 30.7109C18.1927 30.7109 7.08854 30.7109 1.42969 30.7109C1.39583 30.7109 1.34896 30.7005 1.32552 30.6641C1.30208 30.6406 1.27865 30.5964 1.27865 30.5599V1.45313C1.27865 1.40625 1.28906 1.3724 1.32552 1.34896C1.34896 1.32552 1.38281 1.30208 1.42969 1.30208H16.651H16.6641V1.30469ZM17.9583 6.94792V2.22135L23.2813 7.61198H18.6224C18.4401 7.61198 18.2786 7.53125 18.1536 7.41667C18.0365 7.30208 17.9583 7.13021 17.9583 6.94792ZM5.34375 9.625C4.98958 9.625 4.69271 9.91146 4.69271 10.2786C4.69271 10.6328 4.97917 10.9323 5.34375 10.9323H16.7656C17.1198 10.9323 17.4193 10.6458 17.4193 10.2786C17.4193 9.92448 17.1328 9.625 16.7656 9.625H5.34375ZM12.7604 18.3229C12.4063 18.3229 12.1094 18.6094 12.1094 18.9766C12.1094 19.3307 12.3958 19.6302 12.7604 19.6302H20.1094C20.4635 19.6302 20.763 19.3438 20.763 18.9766C20.763 18.6224 20.4766 18.3229 20.1094 18.3229H12.7604ZM5.34375 13.974C4.98958 13.974 4.69271 14.2604 4.69271 14.6276C4.69271 14.9818 4.97917 15.2813 5.34375 15.2813H20.1068C20.4609 15.2813 20.7604 14.9948 20.7604 14.6276C20.7604 14.2734 20.474 13.974 20.1068 13.974H5.34375Z" fill="black"/>
</svg>
