<svg width="56" height="24" viewBox="0 0 56 24" fill="none" xmlns="http://www.w3.org/2000/svg">
<path d="M8.39967 21.3432C3.46054 21.3432 0 18.1845 0 13.4908C0 8.47233 3.99535 5.99262 7.64464 5.99262C9.6895 5.99262 11.3883 6.76015 12.4265 8.23616V0H16.6735V13.5203C16.6735 18.3616 13.213 21.3432 8.39967 21.3432ZM8.36821 17.6236C10.7906 17.6236 12.4265 16 12.4265 13.6679C12.4265 11.3358 10.7906 9.71218 8.36821 9.71218C5.94583 9.71218 4.30994 11.3358 4.30994 13.6679C4.30994 16 5.94583 17.6236 8.36821 17.6236Z" fill="#FFCC00"/>
<path d="M41.6648 24H36.474L34.0831 20.7823C32.9191 21.1365 31.6293 21.3432 30.2451 21.3432C23.8273 21.3432 19.2972 17.0923 19.2972 11.3063C19.2972 5.5203 23.8273 1.26937 30.2451 1.26937C36.6628 1.26937 41.1929 5.5203 41.1929 11.3063C41.1929 14.3469 39.9346 16.9742 37.8268 18.7454L41.6648 24ZM30.2451 17.3579C30.6855 17.3579 31.0945 17.3284 31.5034 17.2694L28.5462 13.2546H33.8L35.2156 15.203C36.065 14.1697 36.5369 12.8413 36.5369 11.3063C36.5369 7.79336 34.0202 5.25461 30.2451 5.25461C26.4699 5.25461 23.9532 7.79336 23.9532 11.3063C23.9532 14.8192 26.4699 17.3579 30.2451 17.3579Z" fill="#FFCC00"/>
<path d="M46.5936 14.6125V14.3764C46.5936 11.3653 48.3239 10.3026 49.7396 9.41697C50.8092 8.73801 51.7215 8.17712 51.7215 6.99631C51.7215 5.72694 50.8092 4.98893 49.425 4.98893C48.1666 4.98893 47.1284 5.72694 47.1284 7.11439V7.35055H43.1016V6.96679C43.1016 3.4834 45.8386 1.26937 49.5508 1.26937C53.2945 1.26937 56 3.42435 56 6.96679C56 10.0074 54.2697 10.952 52.7597 11.7786C51.5957 12.428 50.5575 12.9889 50.5575 14.3764V14.6125H46.5936ZM48.6385 21.3432C47.0655 21.3432 45.8701 20.2214 45.8701 18.7454C45.8701 17.2694 47.0655 16.1476 48.6385 16.1476C50.2115 16.1476 51.4069 17.2694 51.4069 18.7454C51.4069 20.2214 50.2115 21.3432 48.6385 21.3432Z" fill="#FFCC00"/>
</svg>
