<svg width="202" height="86" viewBox="0 0 202 86" fill="none" xmlns="http://www.w3.org/2000/svg">
<path d="M30.2988 76.4797C12.4827 76.4797 0 65.1611 0 48.3419C0 30.3592 14.4118 21.4736 27.5753 21.4736C34.9514 21.4736 41.0793 24.2239 44.8241 29.5129V0H60.1437V48.4477C60.1437 65.7958 47.661 76.4797 30.2988 76.4797ZM30.1853 63.1513C38.9232 63.1513 44.8241 57.3333 44.8241 48.9766C44.8241 40.6199 38.9232 34.802 30.1853 34.802C21.4475 34.802 15.5466 40.6199 15.5466 48.9766C15.5466 57.3333 21.4475 63.1513 30.1853 63.1513Z" fill="#272727"/>
<path d="M150.291 86H131.567L122.943 74.4699C118.744 75.7392 114.091 76.4797 109.098 76.4797C85.9486 76.4797 69.6076 61.2472 69.6076 40.5141C69.6076 19.7811 85.9486 4.54858 109.098 4.54858C132.248 4.54858 148.589 19.7811 148.589 40.5141C148.589 51.4096 144.05 60.8241 136.447 67.171L150.291 86ZM109.098 62.1993C110.687 62.1993 112.162 62.0935 113.637 61.8819L102.97 47.4957H121.921L127.028 54.4772C130.092 50.7749 131.794 46.0148 131.794 40.5141C131.794 27.9262 122.716 18.829 109.098 18.829C95.4808 18.829 86.4025 27.9262 86.4025 40.5141C86.4025 53.1021 95.4808 62.1993 109.098 62.1993Z" fill="#272727"/>
<path d="M168.07 52.3616V51.5154C168.07 40.7257 174.311 36.9176 179.418 33.7442C183.276 31.3112 186.567 29.3014 186.567 25.0701C186.567 20.5215 183.276 17.877 178.283 17.877C173.744 17.877 169.999 20.5215 169.999 25.4932V26.3395H155.474V24.9643C155.474 12.4822 165.346 4.54858 178.737 4.54858C192.241 4.54858 202 12.2706 202 24.9643C202 35.8598 195.759 39.2448 190.312 42.2066C186.113 44.5338 182.368 46.5437 182.368 51.5154V52.3616H168.07ZM175.446 76.4797C169.772 76.4797 165.46 72.46 165.46 67.171C165.46 61.8819 169.772 57.8622 175.446 57.8622C181.12 57.8622 185.432 61.8819 185.432 67.171C185.432 72.46 181.12 76.4797 175.446 76.4797Z" fill="#272727"/>
</svg>
